Coordinates
version=1
nRows=6
nColumns=34
inDegrees=yes

Units are S.I. units (second, meters, Newtons, ...)
Angles are in degrees.

endheader
time	pelvis_tilt	pelvis_list	pelvis_rotation	pelvis_tx	pelvis_ty	pelvis_tz	hip_flexion_r	hip_adduction_r	hip_rotation_r	knee_angle_r	ankle_angle_r	subtalar_angle_r	mtp_angle_r	hip_flexion_l	hip_adduction_l	hip_rotation_l	knee_angle_l	socket_flexion	socket_adduction	socket_rotation	socket_tx	socket_ty	socket_tz	pros_ankle_rx	pros_ankle_ry	pros_ankle_rz	pros_ankle_tx	pros_ankle_ty	pros_ankle_tz	foot_flex	lumbar_extension	lumbar_bending	lumbar_rotation
      0.89166667	      1.06237056	     -7.33882110	      3.75736362	      0.44285091	      1.04468692	      0.40099302	      9.87250937	      9.42968474	     -9.18001949	    -20.10588818	      9.09990073	     10.86136523	     12.32970164	     15.80628539	    -11.53350077	     -0.42881255	    -70.14643171	     -3.83332116	      0.69467469	     -7.26349810	      0.00000000	     -0.01737319	      0.00000000	      0.00000000	      0.00000000	      0.00000000	      0.00000000	      0.00000000	      0.00000000	     -1.50440275	    -21.02091549	      1.17774881	      3.02096192
      0.89583333	      1.01217577	     -7.21974623	      3.74683659	      0.44802987	      1.04584701	      0.40095309	      9.39760735	      9.34980028	     -9.13381274	    -19.72504081	      9.04391026	     10.96682389	     12.36492603	     16.39452289	    -11.29679505	     -0.24456490	    -69.79375637	     -3.87053615	      0.69203761	     -6.95443850	      0.00000000	     -0.01688613	      0.00000000	      0.00000000	      0.00000000	      0.00000000	      0.00000000	      0.00000000	      0.00000000	     -1.51049905	    -20.95454280	      0.99940207	      3.00062082
      0.90000000	      0.95806063	     -7.11179543	      3.68633709	      0.45324933	      1.04696033	      0.40094482	      8.94059681	      9.27158139	     -9.10352431	    -19.38103183	      8.97668763	     11.06006285	     12.40236061	     16.94966144	    -11.07538236	     -0.08049358	    -69.40213938	     -3.92156200	      0.71210619	     -6.64851065	      0.00000000	     -0.01643900	      0.00000000	      0.00000000	      0.00000000	      0.00000000	      0.00000000	      0.00000000	      0.00000000	     -1.51260167	    -20.90534977	      0.85809217	      2.98254561
      0.90416667	      0.89895258	     -7.00315131	      3.64612781	      0.45859258	      1.04809765	      0.40090545	      8.44125474	      9.19058691	     -9.08975269	    -18.94062213	      8.79352306	     11.16927878	     12.47924067	     17.44944866	    -10.84292943	      0.09111504	    -68.88479093	     -3.93363097	      0.74672923	     -6.39076311	      0.00000000	     -0.01616700	      0.00000000	      0.00000000	      0.00000000	      0.00000000	      0.00000000	      0.00000000	      0.00000000	     -1.50414438	    -20.76650977	      0.67849257	      2.92924976
      0.90833333	      0.84765992	     -6.90299176	      3.60278725	      0.46359234	      1.04917995	      0.40081523	      8.01188944	      9.11726602	     -9.02823601	    -18.63376067	      8.75877109	     11.25853790	     12.53131879	     18.00846439	    -10.62925910	      0.22828731	    -68.41577028	     -3.97082229	      0.71856215	     -6.07789200	      0.00000000	     -0.01562878	      0.00000000	      0.00000000	      0.00000000	      0.00000000	      0.00000000	      0.00000000	      0.00000000	     -1.52443232	    -20.78350124	      0.56520188	      2.93814943
      0.91250000	      0.79092515	     -6.79823666	      3.55925599	      0.46871674	      1.05025074	      0.40080085	      7.56257686	      9.04507165	     -8.97594551	    -18.27630600	      8.69031586	     11.36250029	     12.58076484	     18.54278474	    -10.42608083	      0.34225970	    -67.90622828	     -4.02775034	      0.71441193	     -5.78097429	      0.00000000	     -0.01506959	      0.00000000	      0.00000000	      0.00000000	      0.00000000	      0.00000000	      0.00000000	      0.00000000	     -1.53164724	    -20.73986770	      0.41825475	      2.94531828
